<svg xmlns="http://www.w3.org/2000/svg"  viewBox="0 0 48 48" width="512px" height="512px"><path fill="#7e57c2" d="M38,5.002L14,5c-2.207,0-4.816,1.068-4.984,6.002H9c0,0,0,19.823,0,27.999l0.018-0.054 C9.2,42.585,11.565,43,12.607,43H36c0.188,0,0.5,0,1,0c2,0,2-2,2-2v-5.998v-29C39,5.449,38.553,5.002,38,5.002z"/><path fill="#ffe0b2" d="M36,36H12.607C11.275,36,11,37.119,11,38.5c0,1.382,0.275,2.502,1.607,2.502L36,41V36z"/><path fill="#e0b990" d="M12.607,36c-1.167,0-1.522,0.858-1.593,2H36v-2H12.607z"/><path fill="#311b92" d="M38,36h-2v7c0.188,0,0.5,0,1,0c2,0,2-2,2-2v-5.998C39,35.553,38.553,36,38,36z"/><path fill="#ede7f6" d="M23.766,21.799h-4.449L18.451,25H15l5.049-15.641h2.985L28.115,25h-3.484L23.766,21.799z M20.026,19.167h3.018l-1.509-5.575L20.026,19.167z"/><polygon fill="#8bc34a" points="29.149,32.362 24.4,28.8 25.6,27.2 28.851,29.638 34.241,23.349 35.759,24.651"/></svg>